<svg xmlns="http://www.w3.org/2000/svg" width="1920" height="1052" viewBox="0 0 1920 1052" font-family="system-ui,-apple-system,Segoe UI,sans-serif">
<rect width="100%" height="100%" fill="#f5f6f8"/>
<rect width="260" height="100%" fill="#1d2230"/>
<rect x="28" y="30" width="34" height="34" rx="9" fill="#2997ff"/><text x="76" y="54" fill="#fff" font-size="20" font-weight="700">Acme CRM</text>
<rect x="32" y="103" width="18" height="18" rx="5" fill="#5b6478"/><text x="64" y="118" fill="#aab2c3" font-size="17" font-weight="500">Dashboard</text>
<rect x="32" y="155" width="18" height="18" rx="5" fill="#5b6478"/><text x="64" y="170" fill="#aab2c3" font-size="17" font-weight="500">Contacts</text>
<rect x="16" y="194" width="228" height="44" rx="10" fill="#2f3647"/>
<rect x="32" y="207" width="18" height="18" rx="5" fill="#2997ff"/><text x="64" y="222" fill="#fff" font-size="17" font-weight="600">Pipelines</text>
<rect x="32" y="259" width="18" height="18" rx="5" fill="#5b6478"/><text x="64" y="274" fill="#aab2c3" font-size="17" font-weight="500">Inbox</text>
<rect x="32" y="311" width="18" height="18" rx="5" fill="#5b6478"/><text x="64" y="326" fill="#aab2c3" font-size="17" font-weight="500">Calendar</text>
<rect x="32" y="363" width="18" height="18" rx="5" fill="#5b6478"/><text x="64" y="378" fill="#aab2c3" font-size="17" font-weight="500">Automations</text>
<rect x="32" y="415" width="18" height="18" rx="5" fill="#5b6478"/><text x="64" y="430" fill="#aab2c3" font-size="17" font-weight="500">Reports</text>
<rect x="32" y="467" width="18" height="18" rx="5" fill="#5b6478"/><text x="64" y="482" fill="#aab2c3" font-size="17" font-weight="500">Settings</text>
<rect x="260" width="1660" height="78" fill="#fff"/><line x1="260" y1="78" x2="1920" y2="78" stroke="#e3e6ec"/>
<text x="300" y="50" font-size="24" font-weight="700" fill="#1d2230">Sales pipeline</text><rect x="1430" y="20" width="300" height="38" rx="10" fill="#f0f2f5"/><text x="1450" y="45" font-size="15" fill="#8a93a5">Search contacts</text><rect x="1752" y="20" width="132" height="38" rx="10" fill="#2997ff"/><text x="1773" y="45" font-size="15" font-weight="600" fill="#fff">+ New deal</text>
<rect x="300" y="110" width="376" height="128" rx="16" fill="#fff" stroke="#e3e6ec"/><text x="324" y="148" font-size="15" fill="#8a93a5" font-weight="600">Open deals</text><text x="324" y="200" font-size="38" font-weight="700" fill="#1d2230">128</text><text x="406" y="198" font-size="16" font-weight="600" fill="#1f9d55">+12%</text>
<rect x="700" y="110" width="376" height="128" rx="16" fill="#fff" stroke="#e3e6ec"/><text x="724" y="148" font-size="15" fill="#8a93a5" font-weight="600">Pipeline value</text><text x="724" y="200" font-size="38" font-weight="700" fill="#1d2230">$48,200</text><text x="894" y="198" font-size="16" font-weight="600" fill="#1f9d55">+8%</text>
<rect x="1100" y="110" width="376" height="128" rx="16" fill="#fff" stroke="#e3e6ec"/><text x="1124" y="148" font-size="15" fill="#8a93a5" font-weight="600">Won this month</text><text x="1124" y="200" font-size="38" font-weight="700" fill="#1d2230">36</text><text x="1184" y="198" font-size="16" font-weight="600" fill="#1f9d55">+21%</text>
<rect x="1500" y="110" width="376" height="128" rx="16" fill="#fff" stroke="#e3e6ec"/><text x="1524" y="148" font-size="15" fill="#8a93a5" font-weight="600">Reply time</text><text x="1524" y="200" font-size="38" font-weight="700" fill="#1d2230">4m 10s</text><text x="1672" y="198" font-size="16" font-weight="600" fill="#1f9d55">-35%</text>
<rect x="300" y="266" width="376" height="760" rx="16" fill="#eceff3"/><circle cx="328" cy="300" r="7" fill="#2997ff"/><text x="346" y="306" font-size="18" font-weight="700" fill="#1d2230">New lead</text><text x="652" y="306" font-size="16" fill="#8a93a5" text-anchor="end">4</text>
<rect x="314" y="332" width="348" height="134" rx="12" fill="#fff" stroke="#e3e6ec"/><circle cx="346" cy="370" r="18" fill="#2997ff" opacity=".18"/><text x="346" y="376" font-size="14" font-weight="700" fill="#2997ff" text-anchor="middle">JS</text><text x="376" y="376" font-size="18" font-weight="600" fill="#1d2230">John Smith</text><text x="332" y="418" font-size="15" fill="#8a93a5">Lorem ipsum dolor sit amet</text><rect x="332" y="434" width="86" height="22" rx="11" fill="#2997ff" opacity=".15"/><text x="375" y="450" font-size="13" font-weight="600" fill="#2997ff" text-anchor="middle">$900</text>
<rect x="314" y="482" width="348" height="134" rx="12" fill="#fff" stroke="#e3e6ec"/><circle cx="346" cy="520" r="18" fill="#2997ff" opacity=".18"/><text x="346" y="526" font-size="14" font-weight="700" fill="#2997ff" text-anchor="middle">JD</text><text x="376" y="526" font-size="18" font-weight="600" fill="#1d2230">Jane Doe</text><text x="332" y="568" font-size="15" fill="#8a93a5">Lorem ipsum dolor sit amet</text><rect x="332" y="584" width="86" height="22" rx="11" fill="#2997ff" opacity=".15"/><text x="375" y="600" font-size="13" font-weight="600" fill="#2997ff" text-anchor="middle">$1350</text>
<rect x="314" y="632" width="348" height="134" rx="12" fill="#fff" stroke="#e3e6ec"/><circle cx="346" cy="670" r="18" fill="#2997ff" opacity=".18"/><text x="346" y="676" font-size="14" font-weight="700" fill="#2997ff" text-anchor="middle">LI</text><text x="376" y="676" font-size="18" font-weight="600" fill="#1d2230">Lorem Ipsum Co.</text><text x="332" y="718" font-size="15" fill="#8a93a5">Lorem ipsum dolor sit amet</text><rect x="332" y="734" width="86" height="22" rx="11" fill="#2997ff" opacity=".15"/><text x="375" y="750" font-size="13" font-weight="600" fill="#2997ff" text-anchor="middle">$1800</text>
<rect x="314" y="782" width="348" height="134" rx="12" fill="#fff" stroke="#e3e6ec"/><circle cx="346" cy="820" r="18" fill="#2997ff" opacity=".18"/><text x="346" y="826" font-size="14" font-weight="700" fill="#2997ff" text-anchor="middle">DS</text><text x="376" y="826" font-size="18" font-weight="600" fill="#1d2230">Dolor Studio</text><text x="332" y="868" font-size="15" fill="#8a93a5">Lorem ipsum dolor sit amet</text><rect x="332" y="884" width="86" height="22" rx="11" fill="#2997ff" opacity=".15"/><text x="375" y="900" font-size="13" font-weight="600" fill="#2997ff" text-anchor="middle">$2250</text>
<rect x="700" y="266" width="376" height="760" rx="16" fill="#eceff3"/><circle cx="728" cy="300" r="7" fill="#ff9f0a"/><text x="746" y="306" font-size="18" font-weight="700" fill="#1d2230">Contacted</text><text x="1052" y="306" font-size="16" fill="#8a93a5" text-anchor="end">3</text>
<rect x="714" y="332" width="348" height="134" rx="12" fill="#fff" stroke="#e3e6ec"/><circle cx="746" cy="370" r="18" fill="#ff9f0a" opacity=".18"/><text x="746" y="376" font-size="14" font-weight="700" fill="#ff9f0a" text-anchor="middle">SA</text><text x="776" y="376" font-size="18" font-weight="600" fill="#1d2230">Sit Amet LLC</text><text x="732" y="418" font-size="15" fill="#8a93a5">Lorem ipsum dolor sit amet</text><rect x="732" y="434" width="86" height="22" rx="11" fill="#ff9f0a" opacity=".15"/><text x="775" y="450" font-size="13" font-weight="600" fill="#ff9f0a" text-anchor="middle">$900</text>
<rect x="714" y="482" width="348" height="134" rx="12" fill="#fff" stroke="#e3e6ec"/><circle cx="746" cy="520" r="18" fill="#ff9f0a" opacity=".18"/><text x="746" y="526" font-size="14" font-weight="700" fill="#ff9f0a" text-anchor="middle">JS</text><text x="776" y="526" font-size="18" font-weight="600" fill="#1d2230">Jane Smith</text><text x="732" y="568" font-size="15" fill="#8a93a5">Lorem ipsum dolor sit amet</text><rect x="732" y="584" width="86" height="22" rx="11" fill="#ff9f0a" opacity=".15"/><text x="775" y="600" font-size="13" font-weight="600" fill="#ff9f0a" text-anchor="middle">$1350</text>
<rect x="714" y="632" width="348" height="134" rx="12" fill="#fff" stroke="#e3e6ec"/><circle cx="746" cy="670" r="18" fill="#ff9f0a" opacity=".18"/><text x="746" y="676" font-size="14" font-weight="700" fill="#ff9f0a" text-anchor="middle">CI</text><text x="776" y="676" font-size="18" font-weight="600" fill="#1d2230">Consectetur Inc.</text><text x="732" y="718" font-size="15" fill="#8a93a5">Lorem ipsum dolor sit amet</text><rect x="732" y="734" width="86" height="22" rx="11" fill="#ff9f0a" opacity=".15"/><text x="775" y="750" font-size="13" font-weight="600" fill="#ff9f0a" text-anchor="middle">$1800</text>
<rect x="1100" y="266" width="376" height="760" rx="16" fill="#eceff3"/><circle cx="1128" cy="300" r="7" fill="#bf5af2"/><text x="1146" y="306" font-size="18" font-weight="700" fill="#1d2230">Booked</text><text x="1452" y="306" font-size="16" fill="#8a93a5" text-anchor="end">3</text>
<rect x="1114" y="332" width="348" height="134" rx="12" fill="#fff" stroke="#e3e6ec"/><circle cx="1146" cy="370" r="18" fill="#bf5af2" opacity=".18"/><text x="1146" y="376" font-size="14" font-weight="700" fill="#bf5af2" text-anchor="middle">AL</text><text x="1176" y="376" font-size="18" font-weight="600" fill="#1d2230">Adipiscing Labs</text><text x="1132" y="418" font-size="15" fill="#8a93a5">Lorem ipsum dolor sit amet</text><rect x="1132" y="434" width="86" height="22" rx="11" fill="#bf5af2" opacity=".15"/><text x="1175" y="450" font-size="13" font-weight="600" fill="#bf5af2" text-anchor="middle">$900</text>
<rect x="1114" y="482" width="348" height="134" rx="12" fill="#fff" stroke="#e3e6ec"/><circle cx="1146" cy="520" r="18" fill="#bf5af2" opacity=".18"/><text x="1146" y="526" font-size="14" font-weight="700" fill="#bf5af2" text-anchor="middle">JD</text><text x="1176" y="526" font-size="18" font-weight="600" fill="#1d2230">John Doe</text><text x="1132" y="568" font-size="15" fill="#8a93a5">Lorem ipsum dolor sit amet</text><rect x="1132" y="584" width="86" height="22" rx="11" fill="#bf5af2" opacity=".15"/><text x="1175" y="600" font-size="13" font-weight="600" fill="#bf5af2" text-anchor="middle">$1350</text>
<rect x="1114" y="632" width="348" height="134" rx="12" fill="#fff" stroke="#e3e6ec"/><circle cx="1146" cy="670" r="18" fill="#bf5af2" opacity=".18"/><text x="1146" y="676" font-size="14" font-weight="700" fill="#bf5af2" text-anchor="middle">EP</text><text x="1176" y="676" font-size="18" font-weight="600" fill="#1d2230">Elit Partners</text><text x="1132" y="718" font-size="15" fill="#8a93a5">Lorem ipsum dolor sit amet</text><rect x="1132" y="734" width="86" height="22" rx="11" fill="#bf5af2" opacity=".15"/><text x="1175" y="750" font-size="13" font-weight="600" fill="#bf5af2" text-anchor="middle">$1800</text>
<rect x="1500" y="266" width="376" height="760" rx="16" fill="#eceff3"/><circle cx="1528" cy="300" r="7" fill="#30d158"/><text x="1546" y="306" font-size="18" font-weight="700" fill="#1d2230">Won</text><text x="1852" y="306" font-size="16" fill="#8a93a5" text-anchor="end">2</text>
<rect x="1514" y="332" width="348" height="134" rx="12" fill="#fff" stroke="#e3e6ec"/><circle cx="1546" cy="370" r="18" fill="#30d158" opacity=".18"/><text x="1546" y="376" font-size="14" font-weight="700" fill="#30d158" text-anchor="middle">SD</text><text x="1576" y="376" font-size="18" font-weight="600" fill="#1d2230">Sed Do Group</text><text x="1532" y="418" font-size="15" fill="#8a93a5">Lorem ipsum dolor sit amet</text><rect x="1532" y="434" width="86" height="22" rx="11" fill="#30d158" opacity=".15"/><text x="1575" y="450" font-size="13" font-weight="600" fill="#30d158" text-anchor="middle">$900</text>
<rect x="1514" y="482" width="348" height="134" rx="12" fill="#fff" stroke="#e3e6ec"/><circle cx="1546" cy="520" r="18" fill="#30d158" opacity=".18"/><text x="1546" y="526" font-size="14" font-weight="700" fill="#30d158" text-anchor="middle">TL</text><text x="1576" y="526" font-size="18" font-weight="600" fill="#1d2230">Tempor Ltd.</text><text x="1532" y="568" font-size="15" fill="#8a93a5">Lorem ipsum dolor sit amet</text><rect x="1532" y="584" width="86" height="22" rx="11" fill="#30d158" opacity=".15"/><text x="1575" y="600" font-size="13" font-weight="600" fill="#30d158" text-anchor="middle">$1350</text>
</svg>